solid Ender to CXY convert
facet normal -0.0 -1.0 -0.0
  outer loop
    vertex 315.05938590276793 5.595810930552978 423.0079366908942
    vertex 312.059385902768 5.595810930552978 414.7579366908918
    vertex 315.05938590276793 5.595810930552978 414.7579366908918
  endloop
endfacet
facet normal -0.0 -1.0 -0.0
  outer loop
    vertex 312.059385902768 5.595810930552978 414.7579366908918
    vertex 315.05938590276793 5.595810930552978 423.0079366908942
    vertex 312.059385902768 5.595810930552978 423.0079366908942
  endloop
endfacet
facet normal 0.0 1.0 0.0
  outer loop
    vertex 312.059385902768 13.463948005958807 423.0079366908942
    vertex 315.05938590276793 13.463948005958807 414.7579366908918
    vertex 312.059385902768 13.463948005958807 414.7579366908918
  endloop
endfacet
facet normal 0.0 1.0 0.0
  outer loop
    vertex 315.05938590276793 13.463948005958807 414.7579366908918
    vertex 312.059385902768 13.463948005958807 423.0079366908942
    vertex 315.05938590276793 13.463948005958807 423.0079366908942
  endloop
endfacet
facet normal 0.0 0.0 -1.0
  outer loop
    vertex 315.05938590276793 13.463948005958807 414.7579366908918
    vertex 312.059385902768 5.595810930552978 414.7579366908918
    vertex 312.059385902768 13.463948005958807 414.7579366908918
  endloop
endfacet
facet normal 0.0 0.0 -1.0
  outer loop
    vertex 312.059385902768 5.595810930552978 414.7579366908918
    vertex 315.05938590276793 13.463948005958807 414.7579366908918
    vertex 315.05938590276793 5.595810930552978 414.7579366908918
  endloop
endfacet
facet normal 0.0 -1.0 0.0
  outer loop
    vertex 315.05938590276793 1.8086274711711074 440.25793669089416
    vertex 312.059385902768 1.8086274711711074 423.00793669090064
    vertex 315.05938590276793 1.8086274711711074 423.00793669090064
  endloop
endfacet
facet normal 0.0 -1.0 0.0
  outer loop
    vertex 312.059385902768 1.8086274711711074 423.00793669090064
    vertex 315.05938590276793 1.8086274711711074 440.25793669089416
    vertex 312.059385902768 1.8086274711711074 440.25793669089416
  endloop
endfacet
facet normal -1.0 0.0 0.0
  outer loop
    vertex 312.059385902768 1.8086274711711074 440.25793669089416
    vertex 312.059385902768 5.28079717215127 430.81136003500535
    vertex 312.059385902768 1.8086274711711074 423.00793669090064
  endloop
endfacet
facet normal -1.0 0.0 0.0
  outer loop
    vertex 312.059385902768 5.28079717215127 430.81136003500535
    vertex 312.059385902768 1.8086274711711074 440.25793669089416
    vertex 312.059385902768 5.398257327695649 431.0478568810028
  endloop
endfacet
facet normal -1.0 0.0 0.0
  outer loop
    vertex 312.059385902768 5.398257327695649 431.0478568810028
    vertex 312.059385902768 1.8086274711711074 440.25793669089416
    vertex 312.059385902768 10.708847755715071 440.25793669089444
  endloop
endfacet
facet normal -1.0 0.0 0.0
  outer loop
    vertex 312.059385902768 1.8086274711711074 423.00793669090064
    vertex 312.059385902768 5.28079717215127 430.81136003500535
    vertex 312.059385902768 5.187467072925647 430.56434282897806
  endloop
endfacet
facet normal -1.0 0.0 0.0
  outer loop
    vertex 312.059385902768 1.8086274711711074 423.00793669090064
    vertex 312.059385902768 5.187467072925647 430.56434282897806
    vertex 312.059385902768 5.1191968138711506 430.30926381997364
  endloop
endfacet
facet normal -1.0 0.0 0.0
  outer loop
    vertex 312.059385902768 1.8086274711711074 423.00793669090064
    vertex 312.059385902768 5.1191968138711506 430.30926381997364
    vertex 312.059385902768 5.076662955451641 430.048651459456
  endloop
endfacet
facet normal -1.0 0.0 0.0
  outer loop
    vertex 312.059385902768 1.8086274711711074 423.00793669090064
    vertex 312.059385902768 5.076662955451641 430.048651459456
    vertex 312.059385902768 5.060289278438569 429.7851002448906
  endloop
endfacet
facet normal -1.0 0.0 0.0
  outer loop
    vertex 312.059385902768 5.398257327695649 431.0478568810028
    vertex 312.059385902768 10.708847755715071 440.25793669089444
    vertex 312.059385902768 5.538680779282843 431.2714810805916
  endloop
endfacet
facet normal -1.0 0.0 0.0
  outer loop
    vertex 312.059385902768 5.538680779282843 431.2714810805916
    vertex 312.059385902768 10.708847755715071 440.25793669089444
    vertex 312.059385902768 5.700673183435865 431.4800136872246
  endloop
endfacet
facet normal -1.0 0.0 0.0
  outer loop
    vertex 312.059385902768 5.700673183435865 431.4800136872246
    vertex 312.059385902768 10.708847755715071 440.25793669089444
    vertex 312.059385902768 5.88262298798462 431.6713797478048
  endloop
endfacet
facet normal -1.0 0.0 0.0
  outer loop
    vertex 312.059385902768 5.88262298798462 431.6713797478048
    vertex 312.059385902768 10.708847755715071 440.25793669089444
    vertex 312.059385902768 6.082722888135097 431.84367855610844
  endloop
endfacet
facet normal -1.0 0.0 0.0
  outer loop
    vertex 312.059385902768 6.082722888135097 431.84367855610844
    vertex 312.059385902768 10.708847755715071 440.25793669089444
    vertex 312.059385902768 6.298985089765922 431.9951989887058
  endloop
endfacet
facet normal -1.0 0.0 0.0
  outer loop
    vertex 312.059385902768 6.298985089765922 431.9951989887058
    vertex 312.059385902768 10.708847755715071 440.25793669089444
    vertex 312.059385902768 6.5292597969491295 432.12443386157815
  endloop
endfacet
facet normal -1.0 0.0 0.0
  outer loop
    vertex 312.059385902768 6.5292597969491295 432.12443386157815
    vertex 312.059385902768 10.708847755715071 440.25793669089444
    vertex 312.059385902768 6.771256126393064 432.2300988997984
  endloop
endfacet
facet normal -1.0 0.0 0.0
  outer loop
    vertex 312.059385902768 6.771256126393064 432.2300988997984
    vertex 312.059385902768 10.708847755715071 440.25793669089444
    vertex 312.059385902768 7.022570472819809 432.31114268290986
  endloop
endfacet
facet normal -1.0 0.0 0.0
  outer loop
    vertex 312.059385902768 7.022570472819809 432.31114268290986
    vertex 312.059385902768 10.708847755715071 440.25793669089444
    vertex 312.059385902768 7.280704689503799 432.36676137096595
  endloop
endfacet
facet normal -1.0 0.0 0.0
  outer loop
    vertex 312.059385902768 7.280704689503799 432.36676137096595
    vertex 312.059385902768 10.708847755715071 440.25793669089444
    vertex 312.059385902768 7.543093091831187 432.39640100406945
  endloop
endfacet
facet normal -1.0 0.0 0.0
  outer loop
    vertex 312.059385902768 7.543093091831187 432.39640100406945
    vertex 312.059385902768 10.708847755715071 440.25793669089444
    vertex 312.059385902768 7.8071331444292245 432.39976726057523
  endloop
endfacet
facet normal -1.0 0.0 0.0
  outer loop
    vertex 312.059385902768 7.8071331444292245 432.39976726057523
    vertex 312.059385902768 10.708847755715071 440.25793669089444
    vertex 312.059385902768 8.07019526609973 432.3768292246469
  endloop
endfacet
facet normal -1.0 0.0 0.0
  outer loop
    vertex 312.059385902768 8.07019526609973 432.3768292246469
    vertex 312.059385902768 10.708847755715071 440.25793669089444
    vertex 312.059385902768 8.329662489663935 432.3278118515327
  endloop
endfacet
facet normal -1.0 0.0 0.0
  outer loop
    vertex 312.059385902768 8.329662489663935 432.3278118515327
    vertex 312.059385902768 10.708847755715071 440.25793669089444
    vertex 312.059385902768 8.582963341425561 432.2532026204429
  endloop
endfacet
facet normal -1.0 0.0 0.0
  outer loop
    vertex 312.059385902768 8.582963341425561 432.2532026204429
    vertex 312.059385902768 10.708847755715071 440.25793669089444
    vertex 312.059385902768 8.827575333973554 432.15374391716654
  endloop
endfacet
facet normal -1.0 0.0 0.0
  outer loop
    vertex 312.059385902768 8.827575333973554 432.15374391716654
    vertex 312.059385902768 10.708847755715071 440.25793669089444
    vertex 312.059385902768 9.061068934486121 432.0304245598863
  endloop
endfacet
facet normal -1.0 0.0 0.0
  outer loop
    vertex 312.059385902768 9.061068934486121 432.0304245598863
    vertex 312.059385902768 10.708847755715071 440.25793669089444
    vertex 312.059385902768 9.281122739475787 431.8844689943079
  endloop
endfacet
facet normal -1.0 0.0 0.0
  outer loop
    vertex 312.059385902768 9.281122739475787 431.8844689943079
    vertex 312.059385902768 10.708847755715071 440.25793669089444
    vertex 312.059385902768 9.485554150504182 431.7173264706021
  endloop
endfacet
facet normal -1.0 0.0 0.0
  outer loop
    vertex 312.059385902768 9.485554150504182 431.7173264706021
    vertex 312.059385902768 10.708847755715071 440.25793669089444
    vertex 312.059385902768 9.672324466504344 431.5306627325926
  endloop
endfacet
facet normal -1.0 0.0 0.0
  outer loop
    vertex 312.059385902768 9.672324466504344 431.5306627325926
    vertex 312.059385902768 10.708847755715071 440.25793669089444
    vertex 312.059385902768 9.83958151064646 431.32632865604813
  endloop
endfacet
facet normal -1.0 0.0 0.0
  outer loop
    vertex 312.059385902768 9.83958151064646 431.32632865604813
    vertex 312.059385902768 10.708847755715071 440.25793669089444
    vertex 312.059385902768 9.985663332531157 431.1063574472232
  endloop
endfacet
facet normal -1.0 0.0 0.0
  outer loop
    vertex 312.059385902768 9.985663332531157 431.1063574472232
    vertex 312.059385902768 10.708847755715071 440.25793669089444
    vertex 312.059385902768 10.10911505289112 430.8729354088454
  endloop
endfacet
facet normal -1.0 0.0 0.0
  outer loop
    vertex 312.059385902768 10.10911505289112 430.8729354088454
    vertex 312.059385902768 10.708847755715071 440.25793669089444
    vertex 312.059385902768 10.208713712564872 430.6283783930665
  endloop
endfacet
facet normal -1.0 0.0 0.0
  outer loop
    vertex 312.059385902768 10.208713712564872 430.6283783930665
    vertex 312.059385902768 10.708847755715071 440.25793669089444
    vertex 312.059385902768 10.28346701217717 430.3751207415887
  endloop
endfacet
facet normal -1.0 0.0 0.0
  outer loop
    vertex 312.059385902768 10.28346701217717 430.3751207415887
    vertex 312.059385902768 10.708847755715071 440.25793669089444
    vertex 312.059385902768 10.3326333381356 430.11567739902114
  endloop
endfacet
facet normal -1.0 0.0 0.0
  outer loop
    vertex 312.059385902768 10.3326333381356 430.11567739902114
    vertex 312.059385902768 10.708847755715071 440.25793669089444
    vertex 312.059385902768 10.35572340064417 429.85263173067165
  endloop
endfacet
facet normal -1.0 0.0 0.0
  outer loop
    vertex 312.059385902768 13.513302559181872 439.67159674033286
    vertex 312.059385902768 13.463948005958807 423.0079366908942
    vertex 312.059385902768 13.066403145119383 439.8489858852303
  endloop
endfacet
facet normal -1.0 0.0 0.0
  outer loop
    vertex 312.059385902768 13.463948005958807 423.0079366908942
    vertex 312.059385902768 13.513302559181872 439.67159674033286
    vertex 312.059385902768 13.513302559181872 423.0079366908942
  endloop
endfacet
facet normal -1.0 0.0 0.0
  outer loop
    vertex 312.059385902768 1.8086274711711074 423.00793669090064
    vertex 312.059385902768 5.070237773047673 429.52122810405217
    vertex 312.059385902768 5.463948005958799 423.0079366908942
  endloop
endfacet
facet normal -1.0 0.0 0.0
  outer loop
    vertex 312.059385902768 5.070237773047673 429.52122810405217
    vertex 312.059385902768 1.8086274711711074 423.00793669090064
    vertex 312.059385902768 5.060289278438569 429.7851002448906
  endloop
endfacet
facet normal -1.0 0.0 0.0
  outer loop
    vertex 312.059385902768 5.463948005958799 423.0079366908942
    vertex 312.059385902768 5.070237773047673 429.52122810405217
    vertex 312.059385902768 5.106409914327383 429.25966089834026
  endloop
endfacet
facet normal -1.0 0.0 0.0
  outer loop
    vertex 312.059385902768 5.463948005958799 423.0079366908942
    vertex 312.059385902768 5.106409914327383 429.25966089834026
    vertex 312.059385902768 5.168447044220112 429.0029916163492
  endloop
endfacet
facet normal -1.0 0.0 0.0
  outer loop
    vertex 312.059385902768 5.463948005958799 423.0079366908942
    vertex 312.059385902768 5.168447044220112 429.0029916163492
    vertex 312.059385902768 5.255731551761606 428.75377459219214
  endloop
endfacet
facet normal -1.0 0.0 0.0
  outer loop
    vertex 312.059385902768 5.463948005958799 423.0079366908942
    vertex 312.059385902768 5.255731551761606 428.75377459219214
    vertex 312.059385902768 5.367395890532552 428.5144882308506
  endloop
endfacet
facet normal -1.0 0.0 0.0
  outer loop
    vertex 312.059385902768 5.463948005958799 423.0079366908942
    vertex 312.059385902768 5.367395890532552 428.5144882308506
    vertex 312.059385902768 5.502330534829617 428.287509186781
  endloop
endfacet
facet normal -1.0 0.0 0.0
  outer loop
    vertex 312.059385902768 5.463948005958799 423.0079366908942
    vertex 312.059385902768 5.502330534829617 428.287509186781
    vertex 312.059385902768 5.595810930552978 423.0079366908942
  endloop
endfacet
facet normal -1.0 0.0 0.0
  outer loop
    vertex 312.059385902768 5.595810930552978 423.0079366908942
    vertex 312.059385902768 5.502330534829617 428.287509186781
    vertex 312.059385902768 5.659195568625608 428.075091535572
  endloop
endfacet
facet normal -1.0 0.0 0.0
  outer loop
    vertex 312.059385902768 5.595810930552978 423.0079366908942
    vertex 312.059385902768 5.659195568625608 428.075091535572
    vertex 312.059385902768 5.595810930552978 414.7579366908918
  endloop
endfacet
facet normal -1.0 0.0 0.0
  outer loop
    vertex 312.059385902768 5.595810930552978 414.7579366908918
    vertex 312.059385902768 5.659195568625608 428.075091535572
    vertex 312.059385902768 13.463948005958807 414.7579366908918
  endloop
endfacet
facet normal -1.0 0.0 0.0
  outer loop
    vertex 312.059385902768 13.463948005958807 414.7579366908918
    vertex 312.059385902768 5.659195568625608 428.075091535572
    vertex 312.059385902768 5.836429888490338 427.8793485639996
  endloop
endfacet
facet normal -1.0 0.0 0.0
  outer loop
    vertex 312.059385902768 13.463948005958807 414.7579366908918
    vertex 312.059385902768 5.836429888490338 427.8793485639996
    vertex 312.059385902768 6.032271620888908 427.70222779612226
  endloop
endfacet
facet normal -1.0 0.0 0.0
  outer loop
    vertex 312.059385902768 13.463948005958807 414.7579366908918
    vertex 312.059385902768 6.032271620888908 427.70222779612226
    vertex 312.059385902768 6.244778664557734 427.5454849925063
  endloop
endfacet
facet normal -1.0 0.0 0.0
  outer loop
    vertex 312.059385902768 13.463948005958807 414.7579366908918
    vertex 312.059385902768 6.244778664557734 427.5454849925063
    vertex 312.059385902768 6.471836956634719 427.41067873410753
  endloop
endfacet
facet normal -1.0 0.0 0.0
  outer loop
    vertex 312.059385902768 13.463948005958807 414.7579366908918
    vertex 312.059385902768 6.471836956634719 427.41067873410753
    vertex 312.059385902768 6.711188241795451 427.29915014841026
  endloop
endfacet
facet normal -1.0 0.0 0.0
  outer loop
    vertex 312.059385902768 13.463948005958807 414.7579366908918
    vertex 312.059385902768 6.711188241795451 427.29915014841026
    vertex 312.059385902768 6.960453458060286 427.21200784544317
  endloop
endfacet
facet normal -1.0 0.0 0.0
  outer loop
    vertex 312.059385902768 13.463948005958807 414.7579366908918
    vertex 312.059385902768 6.960453458060286 427.21200784544317
    vertex 312.059385902768 7.217156376505993 427.1501178343337
  endloop
endfacet
facet normal -1.0 0.0 0.0
  outer loop
    vertex 312.059385902768 13.463948005958807 414.7579366908918
    vertex 312.059385902768 7.217156376505993 427.1501178343337
    vertex 312.059385902768 7.478746514260736 427.11409497547413
  endloop
endfacet
facet normal -1.0 0.0 0.0
  outer loop
    vertex 312.059385902768 13.463948005958807 414.7579366908918
    vertex 312.059385902768 7.478746514260736 427.11409497547413
    vertex 312.059385902768 7.7426239296075705 427.1042966696097
  endloop
endfacet
facet normal -1.0 0.0 0.0
  outer loop
    vertex 312.059385902768 13.463948005958807 414.7579366908918
    vertex 312.059385902768 7.7426239296075705 427.1042966696097
    vertex 312.059385902768 8.006166281267001 427.12082122621916
  endloop
endfacet
facet normal -1.0 0.0 0.0
  outer loop
    vertex 312.059385902768 13.463948005958807 414.7579366908918
    vertex 312.059385902768 8.006166281267001 427.12082122621916
    vertex 312.059385902768 8.266754216419198 427.1635033808368
  endloop
endfacet
facet normal -1.0 0.0 0.0
  outer loop
    vertex 312.059385902768 13.463948005958807 414.7579366908918
    vertex 312.059385902768 8.266754216419198 427.1635033808368
    vertex 312.059385902768 8.521793902638152 427.23191863603404
  endloop
endfacet
facet normal -1.0 0.0 0.0
  outer loop
    vertex 312.059385902768 13.463948005958807 414.7579366908918
    vertex 312.059385902768 8.521793902638152 427.23191863603404
    vertex 312.059385902768 8.768756602069582 427.32538971931706
  endloop
endfacet
facet normal -1.0 0.0 0.0
  outer loop
    vertex 312.059385902768 13.463948005958807 414.7579366908918
    vertex 312.059385902768 8.768756602069582 427.32538971931706
    vertex 312.059385902768 9.005187252061221 427.4429849491732
  endloop
endfacet
facet normal -1.0 0.0 0.0
  outer loop
    vertex 312.059385902768 13.463948005958807 414.7579366908918
    vertex 312.059385902768 9.005187252061221 427.4429849491732
    vertex 312.059385902768 9.228730452172478 427.58353598013383
  endloop
endfacet
facet normal -1.0 0.0 0.0
  outer loop
    vertex 312.059385902768 13.463948005958807 414.7579366908918
    vertex 312.059385902768 9.228730452172478 427.58353598013383
    vertex 312.059385902768 9.437170787135331 427.7456477820302
  endloop
endfacet
facet normal -1.0 0.0 0.0
  outer loop
    vertex 312.059385902768 13.463948005958807 414.7579366908918
    vertex 312.059385902768 9.437170787135331 427.7456477820302
    vertex 312.059385902768 9.628433510197683 427.9277073827926
  endloop
endfacet
facet normal -1.0 0.0 0.0
  outer loop
    vertex 312.059385902768 13.463948005958807 414.7579366908918
    vertex 312.059385902768 9.628433510197683 427.9277073827926
    vertex 312.059385902768 9.800618453609362 428.12790582365784
  endloop
endfacet
facet normal -1.0 0.0 0.0
  outer loop
    vertex 312.059385902768 13.463948005958807 414.7579366908918
    vertex 312.059385902768 9.800618453609362 428.12790582365784
    vertex 312.059385902768 9.952014075964957 428.3442535023922
  endloop
endfacet
facet normal -1.0 0.0 0.0
  outer loop
    vertex 312.059385902768 13.463948005958807 414.7579366908918
    vertex 312.059385902768 9.952014075964957 428.3442535023922
    vertex 312.059385902768 10.08111769304411 428.5746019939246
  endloop
endfacet
facet normal -1.0 0.0 0.0
  outer loop
    vertex 312.059385902768 13.463948005958807 414.7579366908918
    vertex 312.059385902768 10.08111769304411 428.5746019939246
    vertex 312.059385902768 10.18664495084235 428.8166599860094
  endloop
endfacet
facet normal -1.0 0.0 0.0
  outer loop
    vertex 312.059385902768 13.463948005958807 414.7579366908918
    vertex 312.059385902768 10.18664495084235 428.8166599860094
    vertex 312.059385902768 10.267545654980903 429.0680184142504
  endloop
endfacet
facet normal -1.0 0.0 0.0
  outer loop
    vertex 312.059385902768 13.463948005958807 414.7579366908918
    vertex 312.059385902768 10.267545654980903 429.0680184142504
    vertex 312.059385902768 10.313802783129042 429.28330520148137
  endloop
endfacet
facet normal -1.0 0.0 0.0
  outer loop
    vertex 312.059385902768 13.463948005958807 414.7579366908918
    vertex 312.059385902768 10.313802783129042 429.28330520148137
    vertex 312.059385902768 10.323016127328863 429.32618532292094
  endloop
endfacet
facet normal -1.0 0.0 0.0
  outer loop
    vertex 312.059385902768 13.463948005958807 414.7579366908918
    vertex 312.059385902768 10.323016127328863 429.32618532292094
    vertex 312.059385902768 10.35250668597945 429.588592607232
  endloop
endfacet
facet normal -1.0 0.0 0.0
  outer loop
    vertex 312.059385902768 13.463948005958807 414.7579366908918
    vertex 312.059385902768 10.35250668597945 429.588592607232
    vertex 312.059385902768 10.35572340064417 429.85263173067165
  endloop
endfacet
facet normal -1.0 0.0 0.0
  outer loop
    vertex 312.059385902768 13.463948005958807 414.7579366908918
    vertex 312.059385902768 10.35572340064417 429.85263173067165
    vertex 312.059385902768 10.708847755715071 440.25793669089444
  endloop
endfacet
facet normal -1.0 0.0 0.0
  outer loop
    vertex 312.059385902768 13.463948005958807 414.7579366908918
    vertex 312.059385902768 10.708847755715071 440.25793669089444
    vertex 312.059385902768 11.1893832629172 440.24142286643155
  endloop
endfacet
facet normal -1.0 0.0 0.0
  outer loop
    vertex 312.059385902768 13.463948005958807 414.7579366908918
    vertex 312.059385902768 11.1893832629172 440.24142286643155
    vertex 312.059385902768 11.66765093259497 440.1919615016854
  endloop
endfacet
facet normal -1.0 0.0 0.0
  outer loop
    vertex 312.059385902768 13.463948005958807 414.7579366908918
    vertex 312.059385902768 11.66765093259497 440.1919615016854
    vertex 312.059385902768 12.141394371315645 440.10978338584073
  endloop
endfacet
facet normal -1.0 0.0 0.0
  outer loop
    vertex 312.059385902768 13.463948005958807 414.7579366908918
    vertex 312.059385902768 12.141394371315645 440.10978338584073
    vertex 312.059385902768 12.608380073830308 439.9952795253671
  endloop
endfacet
facet normal -1.0 0.0 0.0
  outer loop
    vertex 312.059385902768 13.463948005958807 414.7579366908918
    vertex 312.059385902768 12.608380073830308 439.9952795253671
    vertex 312.059385902768 13.066403145119383 439.8489858852303
  endloop
endfacet
facet normal -1.0 0.0 0.0
  outer loop
    vertex 312.059385902768 13.463948005958807 414.7579366908918
    vertex 312.059385902768 13.066403145119383 439.8489858852303
    vertex 312.059385902768 13.463948005958807 423.0079366908942
  endloop
endfacet
facet normal 0.0 0.03434518689074941 0.9994100300364409
  outer loop
    vertex 315.05938590276793 10.708847755715071 440.25793669089444
    vertex 312.059385902768 11.1893832629172 440.24142286643155
    vertex 312.059385902768 10.708847755715071 440.25793669089444
  endloop
endfacet
facet normal 0.0 0.03434518689074941 0.9994100300364409
  outer loop
    vertex 312.059385902768 11.1893832629172 440.24142286643155
    vertex 315.05938590276793 10.708847755715071 440.25793669089444
    vertex 315.05938590276793 11.1893832629172 440.24142286643155
  endloop
endfacet
facet normal 0.0 -0.8723308552852966 0.48891602440216947
  outer loop
    vertex 315.05938590276793 10.08111769304411 428.5746019939246
    vertex 312.059385902768 9.952014075964957 428.3442535023922
    vertex 315.05938590276793 9.952014075964957 428.3442535023922
  endloop
endfacet
facet normal 0.0 -0.8723308552852966 0.48891602440216947
  outer loop
    vertex 312.059385902768 9.952014075964957 428.3442535023922
    vertex 315.05938590276793 10.08111769304411 428.5746019939246
    vertex 312.059385902768 10.08111769304411 428.5746019939246
  endloop
endfacet
facet normal 0.0 -0.7581584529081932 0.6520703645189339
  outer loop
    vertex 315.05938590276793 9.800618453609362 428.12790582365784
    vertex 312.059385902768 9.628433510197683 427.9277073827926
    vertex 315.05938590276793 9.628433510197683 427.9277073827926
  endloop
endfacet
facet normal 0.0 -0.7581584529081932 0.6520703645189339
  outer loop
    vertex 312.059385902768 9.628433510197683 427.9277073827926
    vertex 315.05938590276793 9.800618453609362 428.12790582365784
    vertex 312.059385902768 9.800618453609362 428.12790582365784
  endloop
endfacet
facet normal 0.0 0.0 -1.0
  outer loop
    vertex 315.05938590276793 20.51330255918161 423.0079366908942
    vertex 306.059385902768 13.513302559181872 423.0079366908942
    vertex 306.059385902768 20.51330255918161 423.0079366908942
  endloop
endfacet
facet normal 0.0 0.0 -1.0
  outer loop
    vertex 306.059385902768 13.513302559181872 423.0079366908942
    vertex 315.05938590276793 20.51330255918161 423.0079366908942
    vertex 312.059385902768 13.513302559181872 423.0079366908942
  endloop
endfacet
facet normal 0.0 0.0 -1.0
  outer loop
    vertex 312.059385902768 13.513302559181872 423.0079366908942
    vertex 315.05938590276793 20.51330255918161 423.0079366908942
    vertex 312.059385902768 13.463948005958807 423.0079366908942
  endloop
endfacet
facet normal 0.0 0.0 -1.0
  outer loop
    vertex 312.059385902768 13.463948005958807 423.0079366908942
    vertex 315.05938590276793 20.51330255918161 423.0079366908942
    vertex 315.05938590276793 13.463948005958807 423.0079366908942
  endloop
endfacet
facet normal 0.0 0.17091309202488728 0.9852861081810158
  outer loop
    vertex 315.05938590276793 11.66765093259497 440.1919615016854
    vertex 312.059385902768 12.141394371315645 440.10978338584073
    vertex 312.059385902768 11.66765093259497 440.1919615016854
  endloop
endfacet
facet normal 0.0 0.17091309202488728 0.9852861081810158
  outer loop
    vertex 312.059385902768 12.141394371315645 440.10978338584073
    vertex 315.05938590276793 11.66765093259497 440.1919615016854
    vertex 315.05938590276793 12.141394371315645 440.10978338584073
  endloop
endfacet
facet normal 0.0 0.23814344431608647 0.9712299933225247
  outer loop
    vertex 315.05938590276793 12.141394371315645 440.10978338584073
    vertex 312.059385902768 12.608380073830308 439.9952795253671
    vertex 312.059385902768 12.141394371315645 440.10978338584073
  endloop
endfacet
facet normal 0.0 0.23814344431608647 0.9712299933225247
  outer loop
    vertex 312.059385902768 12.608380073830308 439.9952795253671
    vertex 315.05938590276793 12.141394371315645 440.10978338584073
    vertex 315.05938590276793 12.608380073830308 439.9952795253671
  endloop
endfacet
facet normal 0.0 -1.0 0.0
  outer loop
    vertex 312.059385902768 13.513302559181872 439.67159674033286
    vertex 306.059385902768 13.513302559181872 423.0079366908942
    vertex 312.059385902768 13.513302559181872 423.0079366908942
  endloop
endfacet
facet normal 0.0 -1.0 0.0
  outer loop
    vertex 306.059385902768 13.513302559181872 423.0079366908942
    vertex 312.059385902768 13.513302559181872 439.67159674033286
    vertex 306.059385902768 13.513302559181872 439.67159674033286
  endloop
endfacet
facet normal -1.0 0.0 0.0
  outer loop
    vertex 306.059385902768 20.51330255918186 439.67159674033286
    vertex 306.059385902768 13.513302559181872 423.0079366908942
    vertex 306.059385902768 13.513302559181872 439.67159674033286
  endloop
endfacet
facet normal -1.0 0.0 0.0
  outer loop
    vertex 306.059385902768 13.513302559181872 423.0079366908942
    vertex 306.059385902768 20.51330255918186 439.67159674033286
    vertex 306.059385902768 20.51330255918161 423.0079366908942
  endloop
endfacet
facet normal 1.0 0.0 0.0
  outer loop
    vertex 315.05938590276793 13.463948005958807 414.7579366908918
    vertex 315.05938590276793 5.595810930552978 423.0079366908942
    vertex 315.05938590276793 5.595810930552978 414.7579366908918
  endloop
endfacet
facet normal 1.0 0.0 0.0
  outer loop
    vertex 315.05938590276793 5.595810930552978 423.0079366908942
    vertex 315.05938590276793 13.463948005958807 414.7579366908918
    vertex 315.05938590276793 5.659195568625608 428.075091535572
  endloop
endfacet
facet normal 1.0 0.0 0.0
  outer loop
    vertex 315.05938590276793 5.659195568625608 428.075091535572
    vertex 315.05938590276793 13.463948005958807 414.7579366908918
    vertex 315.05938590276793 5.836429888490338 427.8793485639996
  endloop
endfacet
facet normal 1.0 0.0 0.0
  outer loop
    vertex 315.05938590276793 5.836429888490338 427.8793485639996
    vertex 315.05938590276793 13.463948005958807 414.7579366908918
    vertex 315.05938590276793 6.032271620888908 427.70222779612226
  endloop
endfacet
facet normal 1.0 0.0 0.0
  outer loop
    vertex 315.05938590276793 6.032271620888908 427.70222779612226
    vertex 315.05938590276793 13.463948005958807 414.7579366908918
    vertex 315.05938590276793 6.244778664557734 427.5454849925063
  endloop
endfacet
facet normal 1.0 0.0 0.0
  outer loop
    vertex 315.05938590276793 6.244778664557734 427.5454849925063
    vertex 315.05938590276793 13.463948005958807 414.7579366908918
    vertex 315.05938590276793 6.471836956634719 427.41067873410753
  endloop
endfacet
facet normal 1.0 0.0 0.0
  outer loop
    vertex 315.05938590276793 6.471836956634719 427.41067873410753
    vertex 315.05938590276793 13.463948005958807 414.7579366908918
    vertex 315.05938590276793 6.711188241795451 427.29915014841026
  endloop
endfacet
facet normal 1.0 0.0 0.0
  outer loop
    vertex 315.05938590276793 6.711188241795451 427.29915014841026
    vertex 315.05938590276793 13.463948005958807 414.7579366908918
    vertex 315.05938590276793 6.960453458060286 427.21200784544317
  endloop
endfacet
facet normal 1.0 0.0 0.0
  outer loop
    vertex 315.05938590276793 6.960453458060286 427.21200784544317
    vertex 315.05938590276793 13.463948005958807 414.7579366908918
    vertex 315.05938590276793 7.217156376505993 427.1501178343337
  endloop
endfacet
facet normal 1.0 0.0 0.0
  outer loop
    vertex 315.05938590276793 7.217156376505993 427.1501178343337
    vertex 315.05938590276793 13.463948005958807 414.7579366908918
    vertex 315.05938590276793 7.478746514260736 427.11409497547413
  endloop
endfacet
facet normal 1.0 0.0 0.0
  outer loop
    vertex 315.05938590276793 7.478746514260736 427.11409497547413
    vertex 315.05938590276793 13.463948005958807 414.7579366908918
    vertex 315.05938590276793 7.7426239296075705 427.1042966696097
  endloop
endfacet
facet normal 1.0 0.0 0.0
  outer loop
    vertex 315.05938590276793 7.7426239296075705 427.1042966696097
    vertex 315.05938590276793 13.463948005958807 414.7579366908918
    vertex 315.05938590276793 8.006166281267001 427.12082122621916
  endloop
endfacet
facet normal 1.0 0.0 0.0
  outer loop
    vertex 315.05938590276793 8.006166281267001 427.12082122621916
    vertex 315.05938590276793 13.463948005958807 414.7579366908918
    vertex 315.05938590276793 8.266754216419198 427.1635033808368
  endloop
endfacet
facet normal 1.0 0.0 0.0
  outer loop
    vertex 315.05938590276793 8.266754216419198 427.1635033808368
    vertex 315.05938590276793 13.463948005958807 414.7579366908918
    vertex 315.05938590276793 8.521793902638152 427.23191863603404
  endloop
endfacet
facet normal 1.0 0.0 0.0
  outer loop
    vertex 315.05938590276793 8.521793902638152 427.23191863603404
    vertex 315.05938590276793 13.463948005958807 414.7579366908918
    vertex 315.05938590276793 8.768756602069582 427.32538971931706
  endloop
endfacet
facet normal 1.0 0.0 0.0
  outer loop
    vertex 315.05938590276793 8.768756602069582 427.32538971931706
    vertex 315.05938590276793 13.463948005958807 414.7579366908918
    vertex 315.05938590276793 9.005187252061221 427.4429849491732
  endloop
endfacet
facet normal 1.0 0.0 0.0
  outer loop
    vertex 315.05938590276793 9.005187252061221 427.4429849491732
    vertex 315.05938590276793 13.463948005958807 414.7579366908918
    vertex 315.05938590276793 9.228730452172478 427.58353598013383
  endloop
endfacet
facet normal 1.0 0.0 0.0
  outer loop
    vertex 315.05938590276793 9.228730452172478 427.58353598013383
    vertex 315.05938590276793 13.463948005958807 414.7579366908918
    vertex 315.05938590276793 9.437170787135331 427.7456477820302
  endloop
endfacet
facet normal 1.0 0.0 0.0
  outer loop
    vertex 315.05938590276793 9.437170787135331 427.7456477820302
    vertex 315.05938590276793 13.463948005958807 414.7579366908918
    vertex 315.05938590276793 9.628433510197683 427.9277073827926
  endloop
endfacet
facet normal 1.0 0.0 0.0
  outer loop
    vertex 315.05938590276793 9.628433510197683 427.9277073827926
    vertex 315.05938590276793 13.463948005958807 414.7579366908918
    vertex 315.05938590276793 9.800618453609362 428.12790582365784
  endloop
endfacet
facet normal 1.0 0.0 0.0
  outer loop
    vertex 315.05938590276793 9.800618453609362 428.12790582365784
    vertex 315.05938590276793 13.463948005958807 414.7579366908918
    vertex 315.05938590276793 9.952014075964957 428.3442535023922
  endloop
endfacet
facet normal 1.0 0.0 0.0
  outer loop
    vertex 315.05938590276793 9.952014075964957 428.3442535023922
    vertex 315.05938590276793 13.463948005958807 414.7579366908918
    vertex 315.05938590276793 10.08111769304411 428.5746019939246
  endloop
endfacet
facet normal 1.0 0.0 0.0
  outer loop
    vertex 315.05938590276793 10.08111769304411 428.5746019939246
    vertex 315.05938590276793 13.463948005958807 414.7579366908918
    vertex 315.05938590276793 10.18664495084235 428.8166599860094
  endloop
endfacet
facet normal 1.0 0.0 0.0
  outer loop
    vertex 315.05938590276793 10.18664495084235 428.8166599860094
    vertex 315.05938590276793 13.463948005958807 414.7579366908918
    vertex 315.05938590276793 10.267545654980903 429.0680184142504
  endloop
endfacet
facet normal 1.0 0.0 0.0
  outer loop
    vertex 315.05938590276793 10.267545654980903 429.0680184142504
    vertex 315.05938590276793 13.463948005958807 414.7579366908918
    vertex 315.05938590276793 10.313802783129042 429.28330520148137
  endloop
endfacet
facet normal 1.0 0.0 0.0
  outer loop
    vertex 315.05938590276793 10.313802783129042 429.28330520148137
    vertex 315.05938590276793 13.463948005958807 414.7579366908918
    vertex 315.05938590276793 10.323016127328863 429.32618532292094
  endloop
endfacet
facet normal 1.0 0.0 0.0
  outer loop
    vertex 315.05938590276793 10.323016127328863 429.32618532292094
    vertex 315.05938590276793 13.463948005958807 414.7579366908918
    vertex 315.05938590276793 10.35250668597945 429.588592607232
  endloop
endfacet
facet normal 1.0 0.0 0.0
  outer loop
    vertex 315.05938590276793 10.35250668597945 429.588592607232
    vertex 315.05938590276793 13.463948005958807 414.7579366908918
    vertex 315.05938590276793 10.35572340064417 429.85263173067165
  endloop
endfacet
facet normal 1.0 0.0 0.0
  outer loop
    vertex 315.05938590276793 10.35572340064417 429.85263173067165
    vertex 315.05938590276793 13.463948005958807 414.7579366908918
    vertex 315.05938590276793 10.708847755715071 440.25793669089444
  endloop
endfacet
facet normal 1.0 0.0 0.0
  outer loop
    vertex 315.05938590276793 10.708847755715071 440.25793669089444
    vertex 315.05938590276793 13.463948005958807 414.7579366908918
    vertex 315.05938590276793 11.1893832629172 440.24142286643155
  endloop
endfacet
facet normal 1.0 0.0 0.0
  outer loop
    vertex 315.05938590276793 11.1893832629172 440.24142286643155
    vertex 315.05938590276793 13.463948005958807 414.7579366908918
    vertex 315.05938590276793 11.66765093259497 440.1919615016854
  endloop
endfacet
facet normal 1.0 0.0 0.0
  outer loop
    vertex 315.05938590276793 11.66765093259497 440.1919615016854
    vertex 315.05938590276793 13.463948005958807 414.7579366908918
    vertex 315.05938590276793 12.141394371315645 440.10978338584073
  endloop
endfacet
facet normal 1.0 0.0 0.0
  outer loop
    vertex 315.05938590276793 12.141394371315645 440.10978338584073
    vertex 315.05938590276793 13.463948005958807 414.7579366908918
    vertex 315.05938590276793 12.608380073830308 439.9952795253671
  endloop
endfacet
facet normal 1.0 0.0 0.0
  outer loop
    vertex 315.05938590276793 12.608380073830308 439.9952795253671
    vertex 315.05938590276793 13.463948005958807 414.7579366908918
    vertex 315.05938590276793 13.066403145119383 439.8489858852303
  endloop
endfacet
facet normal 1.0 0.0 0.0
  outer loop
    vertex 315.05938590276793 13.066403145119383 439.8489858852303
    vertex 315.05938590276793 13.463948005958807 414.7579366908918
    vertex 315.05938590276793 13.463948005958807 423.0079366908942
  endloop
endfacet
facet normal 1.0 0.0 0.0
  outer loop
    vertex 315.05938590276793 13.066403145119383 439.8489858852303
    vertex 315.05938590276793 13.463948005958807 423.0079366908942
    vertex 315.05938590276793 13.513302559181872 439.67159674033286
  endloop
endfacet
facet normal 1.0 0.0 0.0
  outer loop
    vertex 315.05938590276793 13.513302559181872 439.67159674033286
    vertex 315.05938590276793 13.463948005958807 423.0079366908942
    vertex 315.05938590276793 20.51330255918161 423.0079366908942
  endloop
endfacet
facet normal 1.0 0.0 0.0
  outer loop
    vertex 315.05938590276793 13.513302559181872 439.67159674033286
    vertex 315.05938590276793 20.51330255918161 423.0079366908942
    vertex 315.05938590276793 20.51330255918186 439.67159674033286
  endloop
endfacet
facet normal 1.0 0.0 0.0
  outer loop
    vertex 315.05938590276793 1.8086274711711074 440.25793669089416
    vertex 315.05938590276793 5.398257327695649 431.0478568810028
    vertex 315.05938590276793 10.708847755715071 440.25793669089444
  endloop
endfacet
facet normal 1.0 0.0 0.0
  outer loop
    vertex 315.05938590276793 5.398257327695649 431.0478568810028
    vertex 315.05938590276793 1.8086274711711074 440.25793669089416
    vertex 315.05938590276793 5.28079717215127 430.81136003500535
  endloop
endfacet
facet normal 1.0 0.0 0.0
  outer loop
    vertex 315.05938590276793 5.28079717215127 430.81136003500535
    vertex 315.05938590276793 1.8086274711711074 440.25793669089416
    vertex 315.05938590276793 5.187467072925647 430.56434282897806
  endloop
endfacet
facet normal 1.0 0.0 0.0
  outer loop
    vertex 315.05938590276793 5.187467072925647 430.56434282897806
    vertex 315.05938590276793 1.8086274711711074 440.25793669089416
    vertex 315.05938590276793 5.1191968138711506 430.30926381997364
  endloop
endfacet
facet normal 1.0 0.0 0.0
  outer loop
    vertex 315.05938590276793 5.1191968138711506 430.30926381997364
    vertex 315.05938590276793 1.8086274711711074 440.25793669089416
    vertex 315.05938590276793 5.076662955451641 430.048651459456
  endloop
endfacet
facet normal 1.0 0.0 0.0
  outer loop
    vertex 315.05938590276793 5.076662955451641 430.048651459456
    vertex 315.05938590276793 1.8086274711711074 440.25793669089416
    vertex 315.05938590276793 5.060289278438569 429.7851002448906
  endloop
endfacet
facet normal 1.0 0.0 0.0
  outer loop
    vertex 315.05938590276793 10.708847755715071 440.25793669089444
    vertex 315.05938590276793 5.398257327695649 431.0478568810028
    vertex 315.05938590276793 5.538680779282843 431.2714810805916
  endloop
endfacet
facet normal 1.0 0.0 0.0
  outer loop
    vertex 315.05938590276793 10.708847755715071 440.25793669089444
    vertex 315.05938590276793 5.538680779282843 431.2714810805916
    vertex 315.05938590276793 5.700673183435865 431.4800136872246
  endloop
endfacet
facet normal 1.0 0.0 0.0
  outer loop
    vertex 315.05938590276793 10.708847755715071 440.25793669089444
    vertex 315.05938590276793 5.700673183435865 431.4800136872246
    vertex 315.05938590276793 5.88262298798462 431.6713797478048
  endloop
endfacet
facet normal 1.0 0.0 0.0
  outer loop
    vertex 315.05938590276793 10.708847755715071 440.25793669089444
    vertex 315.05938590276793 5.88262298798462 431.6713797478048
    vertex 315.05938590276793 6.082722888135097 431.84367855610844
  endloop
endfacet
facet normal 1.0 0.0 0.0
  outer loop
    vertex 315.05938590276793 10.708847755715071 440.25793669089444
    vertex 315.05938590276793 6.082722888135097 431.84367855610844
    vertex 315.05938590276793 6.298985089765922 431.9951989887058
  endloop
endfacet
facet normal 1.0 0.0 0.0
  outer loop
    vertex 315.05938590276793 10.708847755715071 440.25793669089444
    vertex 315.05938590276793 6.298985089765922 431.9951989887058
    vertex 315.05938590276793 6.5292597969491295 432.12443386157815
  endloop
endfacet
facet normal 1.0 0.0 0.0
  outer loop
    vertex 315.05938590276793 10.708847755715071 440.25793669089444
    vertex 315.05938590276793 6.5292597969491295 432.12443386157815
    vertex 315.05938590276793 6.771256126393064 432.2300988997984
  endloop
endfacet
facet normal 1.0 0.0 0.0
  outer loop
    vertex 315.05938590276793 10.708847755715071 440.25793669089444
    vertex 315.05938590276793 6.771256126393064 432.2300988997984
    vertex 315.05938590276793 7.022570472819809 432.31114268290986
  endloop
endfacet
facet normal 1.0 0.0 0.0
  outer loop
    vertex 315.05938590276793 10.708847755715071 440.25793669089444
    vertex 315.05938590276793 7.022570472819809 432.31114268290986
    vertex 315.05938590276793 7.280704689503799 432.36676137096595
  endloop
endfacet
facet normal 1.0 0.0 0.0
  outer loop
    vertex 315.05938590276793 10.708847755715071 440.25793669089444
    vertex 315.05938590276793 7.280704689503799 432.36676137096595
    vertex 315.05938590276793 7.543093091831187 432.39640100406945
  endloop
endfacet
facet normal 1.0 0.0 0.0
  outer loop
    vertex 315.05938590276793 10.708847755715071 440.25793669089444
    vertex 315.05938590276793 7.543093091831187 432.39640100406945
    vertex 315.05938590276793 7.8071331444292245 432.39976726057523
  endloop
endfacet
facet normal 1.0 0.0 0.0
  outer loop
    vertex 315.05938590276793 10.708847755715071 440.25793669089444
    vertex 315.05938590276793 7.8071331444292245 432.39976726057523
    vertex 315.05938590276793 8.07019526609973 432.3768292246469
  endloop
endfacet
facet normal 1.0 0.0 0.0
  outer loop
    vertex 315.05938590276793 10.708847755715071 440.25793669089444
    vertex 315.05938590276793 8.07019526609973 432.3768292246469
    vertex 315.05938590276793 8.329662489663935 432.3278118515327
  endloop
endfacet
facet normal 1.0 0.0 0.0
  outer loop
    vertex 315.05938590276793 10.708847755715071 440.25793669089444
    vertex 315.05938590276793 8.329662489663935 432.3278118515327
    vertex 315.05938590276793 8.582963341425561 432.2532026204429
  endloop
endfacet
facet normal 1.0 0.0 0.0
  outer loop
    vertex 315.05938590276793 10.708847755715071 440.25793669089444
    vertex 315.05938590276793 8.582963341425561 432.2532026204429
    vertex 315.05938590276793 8.827575333973554 432.15374391716654
  endloop
endfacet
facet normal 1.0 0.0 0.0
  outer loop
    vertex 315.05938590276793 10.708847755715071 440.25793669089444
    vertex 315.05938590276793 8.827575333973554 432.15374391716654
    vertex 315.05938590276793 9.061068934486121 432.0304245598863
  endloop
endfacet
facet normal 1.0 0.0 0.0
  outer loop
    vertex 315.05938590276793 10.708847755715071 440.25793669089444
    vertex 315.05938590276793 9.061068934486121 432.0304245598863
    vertex 315.05938590276793 9.281122739475787 431.8844689943079
  endloop
endfacet
facet normal 1.0 0.0 0.0
  outer loop
    vertex 315.05938590276793 10.708847755715071 440.25793669089444
    vertex 315.05938590276793 9.281122739475787 431.8844689943079
    vertex 315.05938590276793 9.485554150504182 431.7173264706021
  endloop
endfacet
facet normal 1.0 0.0 0.0
  outer loop
    vertex 315.05938590276793 10.708847755715071 440.25793669089444
    vertex 315.05938590276793 9.485554150504182 431.7173264706021
    vertex 315.05938590276793 9.672324466504344 431.5306627325926
  endloop
endfacet
facet normal 1.0 0.0 0.0
  outer loop
    vertex 315.05938590276793 10.708847755715071 440.25793669089444
    vertex 315.05938590276793 9.672324466504344 431.5306627325926
    vertex 315.05938590276793 9.83958151064646 431.32632865604813
  endloop
endfacet
facet normal 1.0 0.0 0.0
  outer loop
    vertex 315.05938590276793 10.708847755715071 440.25793669089444
    vertex 315.05938590276793 9.83958151064646 431.32632865604813
    vertex 315.05938590276793 9.985663332531157 431.1063574472232
  endloop
endfacet
facet normal 1.0 0.0 0.0
  outer loop
    vertex 315.05938590276793 10.708847755715071 440.25793669089444
    vertex 315.05938590276793 9.985663332531157 431.1063574472232
    vertex 315.05938590276793 10.10911505289112 430.8729354088454
  endloop
endfacet
facet normal 1.0 0.0 0.0
  outer loop
    vertex 315.05938590276793 10.708847755715071 440.25793669089444
    vertex 315.05938590276793 10.10911505289112 430.8729354088454
    vertex 315.05938590276793 10.208713712564872 430.6283783930665
  endloop
endfacet
facet normal 1.0 0.0 0.0
  outer loop
    vertex 315.05938590276793 10.708847755715071 440.25793669089444
    vertex 315.05938590276793 10.208713712564872 430.6283783930665
    vertex 315.05938590276793 10.28346701217717 430.3751207415887
  endloop
endfacet
facet normal 1.0 0.0 0.0
  outer loop
    vertex 315.05938590276793 10.708847755715071 440.25793669089444
    vertex 315.05938590276793 10.28346701217717 430.3751207415887
    vertex 315.05938590276793 10.3326333381356 430.11567739902114
  endloop
endfacet
facet normal 1.0 0.0 0.0
  outer loop
    vertex 315.05938590276793 10.708847755715071 440.25793669089444
    vertex 315.05938590276793 10.3326333381356 430.11567739902114
    vertex 315.05938590276793 10.35572340064417 429.85263173067165
  endloop
endfacet
facet normal 1.0 0.0 0.0
  outer loop
    vertex 315.05938590276793 5.463948005958799 423.0079366908942
    vertex 315.05938590276793 1.8086274711711074 440.25793669089416
    vertex 315.05938590276793 1.8086274711711074 423.00793669090064
  endloop
endfacet
facet normal 1.0 0.0 0.0
  outer loop
    vertex 315.05938590276793 1.8086274711711074 440.25793669089416
    vertex 315.05938590276793 5.463948005958799 423.0079366908942
    vertex 315.05938590276793 5.070237773047673 429.52122810405217
  endloop
endfacet
facet normal 1.0 0.0 0.0
  outer loop
    vertex 315.05938590276793 1.8086274711711074 440.25793669089416
    vertex 315.05938590276793 5.070237773047673 429.52122810405217
    vertex 315.05938590276793 5.060289278438569 429.7851002448906
  endloop
endfacet
facet normal 1.0 0.0 0.0
  outer loop
    vertex 315.05938590276793 5.070237773047673 429.52122810405217
    vertex 315.05938590276793 5.463948005958799 423.0079366908942
    vertex 315.05938590276793 5.106409914327383 429.25966089834026
  endloop
endfacet
facet normal 1.0 0.0 0.0
  outer loop
    vertex 315.05938590276793 5.106409914327383 429.25966089834026
    vertex 315.05938590276793 5.463948005958799 423.0079366908942
    vertex 315.05938590276793 5.168447044220112 429.0029916163492
  endloop
endfacet
facet normal 1.0 0.0 0.0
  outer loop
    vertex 315.05938590276793 5.168447044220112 429.0029916163492
    vertex 315.05938590276793 5.463948005958799 423.0079366908942
    vertex 315.05938590276793 5.255731551761606 428.75377459219214
  endloop
endfacet
facet normal 1.0 0.0 0.0
  outer loop
    vertex 315.05938590276793 5.255731551761606 428.75377459219214
    vertex 315.05938590276793 5.463948005958799 423.0079366908942
    vertex 315.05938590276793 5.367395890532552 428.5144882308506
  endloop
endfacet
facet normal 1.0 0.0 0.0
  outer loop
    vertex 315.05938590276793 5.367395890532552 428.5144882308506
    vertex 315.05938590276793 5.463948005958799 423.0079366908942
    vertex 315.05938590276793 5.502330534829617 428.287509186781
  endloop
endfacet
facet normal 1.0 0.0 0.0
  outer loop
    vertex 315.05938590276793 5.502330534829617 428.287509186781
    vertex 315.05938590276793 5.463948005958799 423.0079366908942
    vertex 315.05938590276793 5.595810930552978 423.0079366908942
  endloop
endfacet
facet normal 1.0 0.0 0.0
  outer loop
    vertex 315.05938590276793 5.502330534829617 428.287509186781
    vertex 315.05938590276793 5.595810930552978 423.0079366908942
    vertex 315.05938590276793 5.659195568625608 428.075091535572
  endloop
endfacet
facet normal 0.0 -3.0416863141547434e-14 1.0
  outer loop
    vertex 315.05938590276793 1.8086274711711074 440.25793669089416
    vertex 312.059385902768 10.708847755715071 440.25793669089444
    vertex 312.059385902768 1.8086274711711074 440.25793669089416
  endloop
endfacet
facet normal 0.0 -3.0416863141547434e-14 1.0
  outer loop
    vertex 312.059385902768 10.708847755715071 440.25793669089444
    vertex 315.05938590276793 1.8086274711711074 440.25793669089416
    vertex 315.05938590276793 10.708847755715071 440.25793669089444
  endloop
endfacet
facet normal 0.0 -0.6894657532610093 0.7243182829945888
  outer loop
    vertex 315.05938590276793 9.437170787135331 427.7456477820302
    vertex 312.059385902768 9.628433510197683 427.9277073827926
    vertex 312.059385902768 9.437170787135331 427.7456477820302
  endloop
endfacet
facet normal 0.0 -0.6894657532610093 0.7243182829945888
  outer loop
    vertex 312.059385902768 9.628433510197683 427.9277073827926
    vertex 315.05938590276793 9.437170787135331 427.7456477820302
    vertex 315.05938590276793 9.628433510197683 427.9277073827926
  endloop
endfacet
facet normal 0.0 -0.9999257989283017 0.012181815857984297
  outer loop
    vertex 315.05938590276793 10.35572340064417 429.85263173067165
    vertex 312.059385902768 10.35250668597945 429.588592607232
    vertex 315.05938590276793 10.35250668597945 429.588592607232
  endloop
endfacet
facet normal 0.0 -0.9999257989283017 0.012181815857984297
  outer loop
    vertex 312.059385902768 10.35250668597945 429.588592607232
    vertex 315.05938590276793 10.35572340064417 429.85263173067165
    vertex 312.059385902768 10.35572340064417 429.85263173067165
  endloop
endfacet
facet normal 0.0 0.330011264480101 0.943976994060896
  outer loop
    vertex 315.05938590276793 6.711188241795451 427.29915014841026
    vertex 312.059385902768 6.960453458060286 427.21200784544317
    vertex 312.059385902768 6.711188241795451 427.29915014841026
  endloop
endfacet
facet normal 0.0 0.330011264480101 0.943976994060896
  outer loop
    vertex 312.059385902768 6.960453458060286 427.21200784544317
    vertex 315.05938590276793 6.711188241795451 427.29915014841026
    vertex 315.05938590276793 6.960453458060286 427.21200784544317
  endloop
endfacet
facet normal -0.0 -0.9825131683455608 -0.18619310950614637
  outer loop
    vertex 315.05938590276793 10.28346701217717 430.3751207415887
    vertex 312.059385902768 10.3326333381356 430.11567739902114
    vertex 315.05938590276793 10.3326333381356 430.11567739902114
  endloop
endfacet
facet normal -0.0 -0.9825131683455608 -0.18619310950614637
  outer loop
    vertex 312.059385902768 10.3326333381356 430.11567739902114
    vertex 315.05938590276793 10.28346701217717 430.3751207415887
    vertex 312.059385902768 10.28346701217717 430.3751207415887
  endloop
endfacet
facet normal 0.0 0.7897184355923234 -0.6134694715188472
  outer loop
    vertex 312.059385902768 5.700673183435865 431.4800136872246
    vertex 315.05938590276793 5.538680779282843 431.2714810805916
    vertex 312.059385902768 5.538680779282843 431.2714810805916
  endloop
endfacet
facet normal 0.0 0.7897184355923234 -0.6134694715188472
  outer loop
    vertex 315.05938590276793 5.538680779282843 431.2714810805916
    vertex 312.059385902768 5.700673183435865 431.4800136872246
    vertex 315.05938590276793 5.700673183435865 431.4800136872246
  endloop
endfacet
facet normal 0.0 0.9992900382181991 0.03767518437738903
  outer loop
    vertex 312.059385902768 5.060289278438569 429.7851002448906
    vertex 315.05938590276793 5.070237773047673 429.52122810405217
    vertex 312.059385902768 5.070237773047673 429.52122810405217
  endloop
endfacet
facet normal 0.0 0.9992900382181991 0.03767518437738903
  outer loop
    vertex 315.05938590276793 5.070237773047673 429.52122810405217
    vertex 312.059385902768 5.060289278438569 429.7851002448906
    vertex 315.05938590276793 5.060289278438569 429.7851002448906
  endloop
endfacet
facet normal 0.0 0.7412841356857661 0.6711913513899048
  outer loop
    vertex 312.059385902768 5.659195568625608 428.075091535572
    vertex 315.05938590276793 5.836429888490338 427.8793485639996
    vertex 312.059385902768 5.836429888490338 427.8793485639996
  endloop
endfacet
facet normal 0.0 0.7412841356857661 0.6711913513899048
  outer loop
    vertex 315.05938590276793 5.836429888490338 427.8793485639996
    vertex 312.059385902768 5.659195568625608 428.075091535572
    vertex 315.05938590276793 5.659195568625608 428.075091535572
  endloop
endfacet
facet normal 0.0 -0.161637912894896 0.9868501330571843
  outer loop
    vertex 315.05938590276793 8.006166281267001 427.12082122621916
    vertex 312.059385902768 8.266754216419198 427.1635033808368
    vertex 312.059385902768 8.006166281267001 427.12082122621916
  endloop
endfacet
facet normal 0.0 -0.161637912894896 0.9868501330571843
  outer loop
    vertex 312.059385902768 8.266754216419198 427.1635033808368
    vertex 315.05938590276793 8.006166281267001 427.12082122621916
    vertex 315.05938590276793 8.266754216419198 427.1635033808368
  endloop
endfacet
facet normal -0.0 -0.9590926156968328 -0.28309248403270515
  outer loop
    vertex 315.05938590276793 10.208713712564872 430.6283783930665
    vertex 312.059385902768 10.28346701217717 430.3751207415887
    vertex 315.05938590276793 10.28346701217717 430.3751207415887
  endloop
endfacet
facet normal -0.0 -0.9590926156968328 -0.28309248403270515
  outer loop
    vertex 312.059385902768 10.28346701217717 430.3751207415887
    vertex 315.05938590276793 10.208713712564872 430.6283783930665
    vertex 312.059385902768 10.208713712564872 430.6283783930665
  endloop
endfacet
facet normal 0.0 0.30691578807746156 -0.9517366752567598
  outer loop
    vertex 315.05938590276793 7.022570472819809 432.31114268290986
    vertex 312.059385902768 6.771256126393064 432.2300988997984
    vertex 312.059385902768 7.022570472819809 432.31114268290986
  endloop
endfacet
facet normal 0.0 0.30691578807746156 -0.9517366752567598
  outer loop
    vertex 312.059385902768 6.771256126393064 432.2300988997984
    vertex 315.05938590276793 7.022570472819809 432.31114268290986
    vertex 315.05938590276793 6.771256126393064 432.2300988997984
  endloop
endfacet
facet normal 0.0 -0.9166754337171467 0.3996325177203192
  outer loop
    vertex 315.05938590276793 10.18664495084235 428.8166599860094
    vertex 312.059385902768 10.08111769304411 428.5746019939246
    vertex 315.05938590276793 10.08111769304411 428.5746019939246
  endloop
endfacet
facet normal 0.0 -0.9166754337171467 0.3996325177203192
  outer loop
    vertex 312.059385902768 10.08111769304411 428.5746019939246
    vertex 315.05938590276793 10.18664495084235 428.8166599860094
    vertex 312.059385902768 10.18664495084235 428.8166599860094
  endloop
endfacet
facet normal 0.0 -0.9937440409351438 0.11168160594248061
  outer loop
    vertex 315.05938590276793 10.35250668597945 429.588592607232
    vertex 312.059385902768 10.323016127328863 429.32618532292094
    vertex 315.05938590276793 10.323016127328863 429.32618532292094
  endloop
endfacet
facet normal 0.0 -0.9937440409351438 0.11168160594248061
  outer loop
    vertex 312.059385902768 10.323016127328863 429.32618532292094
    vertex 315.05938590276793 10.35250668597945 429.588592607232
    vertex 312.059385902768 10.35250668597945 429.588592607232
  endloop
endfacet
facet normal -0.0 -0.4670151775789289 -0.8842492996383551
  outer loop
    vertex 315.05938590276793 9.061068934486121 432.0304245598863
    vertex 312.059385902768 8.827575333973554 432.15374391716654
    vertex 312.059385902768 9.061068934486121 432.0304245598863
  endloop
endfacet
facet normal -0.0 -0.4670151775789289 -0.8842492996383551
  outer loop
    vertex 312.059385902768 8.827575333973554 432.15374391716654
    vertex 315.05938590276793 9.061068934486121 432.0304245598863
    vertex 315.05938590276793 8.827575333973554 432.15374391716654
  endloop
endfacet
facet normal 0.0 0.400156444998942 -0.9164468448992602
  outer loop
    vertex 315.05938590276793 6.771256126393064 432.2300988997984
    vertex 312.059385902768 6.5292597969491295 432.12443386157815
    vertex 312.059385902768 6.771256126393064 432.2300988997984
  endloop
endfacet
facet normal 0.0 0.400156444998942 -0.9164468448992602
  outer loop
    vertex 312.059385902768 6.5292597969491295 432.12443386157815
    vertex 315.05938590276793 6.771256126393064 432.2300988997984
    vertex 315.05938590276793 6.5292597969491295 432.12443386157815
  endloop
endfacet
facet normal 0.0 0.8044282571836925 0.5940498119218683
  outer loop
    vertex 312.059385902768 5.502330534829617 428.287509186781
    vertex 315.05938590276793 5.659195568625608 428.075091535572
    vertex 312.059385902768 5.659195568625608 428.075091535572
  endloop
endfacet
facet normal 0.0 0.8044282571836925 0.5940498119218683
  outer loop
    vertex 315.05938590276793 5.659195568625608 428.075091535572
    vertex 312.059385902768 5.502330534829617 428.287509186781
    vertex 315.05938590276793 5.502330534829617 428.287509186781
  endloop
endfacet
facet normal -0.0 -0.28254615360681606 -0.9592537052740499
  outer loop
    vertex 315.05938590276793 8.582963341425561 432.2532026204429
    vertex 312.059385902768 8.329662489663935 432.3278118515327
    vertex 312.059385902768 8.582963341425561 432.2532026204429
  endloop
endfacet
facet normal -0.0 -0.28254615360681606 -0.9592537052740499
  outer loop
    vertex 312.059385902768 8.329662489663935 432.3278118515327
    vertex 315.05938590276793 8.582963341425561 432.2532026204429
    vertex 315.05938590276793 8.329662489663935 432.3278118515327
  endloop
endfacet
facet normal 0.0 0.9869419719840072 -0.1610762053697538
  outer loop
    vertex 312.059385902768 5.1191968138711506 430.30926381997364
    vertex 315.05938590276793 5.076662955451641 430.048651459456
    vertex 312.059385902768 5.076662955451641 430.048651459456
  endloop
endfacet
facet normal 0.0 0.9869419719840072 -0.1610762053697538
  outer loop
    vertex 315.05938590276793 5.076662955451641 430.048651459456
    vertex 312.059385902768 5.1191968138711506 430.30926381997364
    vertex 315.05938590276793 5.1191968138711506 430.30926381997364
  endloop
endfacet
facet normal -0.0 -0.6329665820522817 -0.7741791175206499
  outer loop
    vertex 315.05938590276793 9.485554150504182 431.7173264706021
    vertex 312.059385902768 9.281122739475787 431.8844689943079
    vertex 312.059385902768 9.485554150504182 431.7173264706021
  endloop
endfacet
facet normal -0.0 -0.6329665820522817 -0.7741791175206499
  outer loop
    vertex 312.059385902768 9.281122739475787 431.8844689943079
    vertex 315.05938590276793 9.485554150504182 431.7173264706021
    vertex 315.05938590276793 9.281122739475787 431.8844689943079
  endloop
endfacet
facet normal 0.0 0.7247118443483789 -0.689052060922229
  outer loop
    vertex 312.059385902768 5.88262298798462 431.6713797478048
    vertex 315.05938590276793 5.700673183435865 431.4800136872246
    vertex 312.059385902768 5.700673183435865 431.4800136872246
  endloop
endfacet
facet normal 0.0 0.7247118443483789 -0.689052060922229
  outer loop
    vertex 315.05938590276793 5.700673183435865 431.4800136872246
    vertex 312.059385902768 5.88262298798462 431.6713797478048
    vertex 315.05938590276793 5.88262298798462 431.6713797478048
  endloop
endfacet
facet normal 0.0 0.21063044553502305 -0.9775657601479901
  outer loop
    vertex 315.05938590276793 7.280704689503799 432.36676137096595
    vertex 312.059385902768 7.022570472819809 432.31114268290986
    vertex 312.059385902768 7.280704689503799 432.36676137096595
  endloop
endfacet
facet normal 0.0 0.21063044553502305 -0.9775657601479901
  outer loop
    vertex 312.059385902768 7.022570472819809 432.31114268290986
    vertex 315.05938590276793 7.280704689503799 432.36676137096595
    vertex 315.05938590276793 7.022570472819809 432.31114268290986
  endloop
endfacet
facet normal -0.0 -0.8330376509690594 -0.5532162977244539
  outer loop
    vertex 315.05938590276793 9.83958151064646 431.32632865604813
    vertex 312.059385902768 9.985663332531157 431.1063574472232
    vertex 315.05938590276793 9.985663332531157 431.1063574472232
  endloop
endfacet
facet normal -0.0 -0.8330376509690594 -0.5532162977244539
  outer loop
    vertex 312.059385902768 9.985663332531157 431.1063574472232
    vertex 315.05938590276793 9.83958151064646 431.32632865604813
    vertex 312.059385902768 9.83958151064646 431.32632865604813
  endloop
endfacet
facet normal 0.0 0.6525026092481713 -0.7577864771321327
  outer loop
    vertex 315.05938590276793 6.082722888135097 431.84367855610844
    vertex 312.059385902768 5.88262298798462 431.6713797478048
    vertex 312.059385902768 6.082722888135097 431.84367855610844
  endloop
endfacet
facet normal 0.0 0.6525026092481713 -0.7577864771321327
  outer loop
    vertex 312.059385902768 5.88262298798462 431.6713797478048
    vertex 315.05938590276793 6.082722888135097 431.84367855610844
    vertex 315.05938590276793 5.88262298798462 431.6713797478048
  endloop
endfacet
facet normal 0.0 0.012748001425399606 -0.9999187409283106
  outer loop
    vertex 315.05938590276793 7.8071331444292245 432.39976726057523
    vertex 312.059385902768 7.543093091831187 432.39640100406945
    vertex 312.059385902768 7.8071331444292245 432.39976726057523
  endloop
endfacet
facet normal 0.0 0.012748001425399606 -0.9999187409283106
  outer loop
    vertex 312.059385902768 7.543093091831187 432.39640100406945
    vertex 315.05938590276793 7.8071331444292245 432.39976726057523
    vertex 315.05938590276793 7.543093091831187 432.39640100406945
  endloop
endfacet
facet normal 0.0 0.9659995924797279 -0.2585435888375492
  outer loop
    vertex 312.059385902768 5.187467072925647 430.56434282897806
    vertex 315.05938590276793 5.1191968138711506 430.30926381997364
    vertex 312.059385902768 5.1191968138711506 430.30926381997364
  endloop
endfacet
facet normal 0.0 0.9659995924797279 -0.2585435888375492
  outer loop
    vertex 315.05938590276793 5.1191968138711506 430.30926381997364
    vertex 312.059385902768 5.187467072925647 430.56434282897806
    vertex 315.05938590276793 5.187467072925647 430.56434282897806
  endloop
endfacet
facet normal 0.0 0.11224703611728248 -0.9936803323417877
  outer loop
    vertex 315.05938590276793 7.543093091831187 432.39640100406945
    vertex 312.059385902768 7.280704689503799 432.36676137096595
    vertex 312.059385902768 7.543093091831187 432.39640100406945
  endloop
endfacet
facet normal 0.0 0.11224703611728248 -0.9936803323417877
  outer loop
    vertex 312.059385902768 7.280704689503799 432.36676137096595
    vertex 315.05938590276793 7.543093091831187 432.39640100406945
    vertex 315.05938590276793 7.280704689503799 432.36676137096595
  endloop
endfacet
facet normal -0.0 -0.0868666640045269 -0.9962199469418009
  outer loop
    vertex 315.05938590276793 8.07019526609973 432.3768292246469
    vertex 312.059385902768 7.8071331444292245 432.39976726057523
    vertex 312.059385902768 8.07019526609973 432.3768292246469
  endloop
endfacet
facet normal -0.0 -0.0868666640045269 -0.9962199469418009
  outer loop
    vertex 312.059385902768 7.8071331444292245 432.39976726057523
    vertex 315.05938590276793 8.07019526609973 432.3768292246469
    vertex 315.05938590276793 7.8071331444292245 432.39976726057523
  endloop
endfacet
facet normal -0.0 -0.7738187885320315 -0.6334070433100812
  outer loop
    vertex 315.05938590276793 9.672324466504344 431.5306627325926
    vertex 312.059385902768 9.83958151064646 431.32632865604813
    vertex 315.05938590276793 9.83958151064646 431.32632865604813
  endloop
endfacet
facet normal -0.0 -0.7738187885320315 -0.6334070433100812
  outer loop
    vertex 312.059385902768 9.83958151064646 431.32632865604813
    vertex 315.05938590276793 9.672324466504344 431.5306627325926
    vertex 312.059385902768 9.672324466504344 431.5306627325926
  endloop
endfacet
facet normal 0.0 1.4892109520235588e-14 1.0
  outer loop
    vertex 312.059385902768 13.513302559181872 439.67159674033286
    vertex 306.059385902768 20.51330255918186 439.67159674033286
    vertex 306.059385902768 13.513302559181872 439.67159674033286
  endloop
endfacet
facet normal 0.0 1.4892109520235588e-14 1.0
  outer loop
    vertex 306.059385902768 20.51330255918186 439.67159674033286
    vertex 312.059385902768 13.513302559181872 439.67159674033286
    vertex 315.05938590276793 20.51330255918186 439.67159674033286
  endloop
endfacet
facet normal 0.0 1.4892109520235588e-14 1.0
  outer loop
    vertex 315.05938590276793 20.51330255918186 439.67159674033286
    vertex 312.059385902768 13.513302559181872 439.67159674033286
    vertex 315.05938590276793 13.513302559181872 439.67159674033286
  endloop
endfacet
facet normal 0.0 0.30425924020395473 0.9525892686517692
  outer loop
    vertex 315.05938590276793 12.608380073830308 439.9952795253671
    vertex 312.059385902768 13.066403145119383 439.8489858852303
    vertex 312.059385902768 12.608380073830308 439.9952795253671
  endloop
endfacet
facet normal 0.0 0.30425924020395473 0.9525892686517692
  outer loop
    vertex 312.059385902768 13.066403145119383 439.8489858852303
    vertex 315.05938590276793 12.608380073830308 439.9952795253671
    vertex 315.05938590276793 13.066403145119383 439.8489858852303
  endloop
endfacet
facet normal -0.0 -0.8839830458818941 -0.4675189564000256
  outer loop
    vertex 315.05938590276793 9.985663332531157 431.1063574472232
    vertex 312.059385902768 10.10911505289112 430.8729354088454
    vertex 315.05938590276793 10.10911505289112 430.8729354088454
  endloop
endfacet
facet normal -0.0 -0.8839830458818941 -0.4675189564000256
  outer loop
    vertex 312.059385902768 10.10911505289112 430.8729354088454
    vertex 315.05938590276793 9.985663332531157 431.1063574472232
    vertex 312.059385902768 9.985663332531157 431.1063574472232
  endloop
endfacet
facet normal 0.0 0.03710646451015376 0.9993113180043327
  outer loop
    vertex 315.05938590276793 7.478746514260736 427.11409497547413
    vertex 312.059385902768 7.7426239296075705 427.1042966696097
    vertex 312.059385902768 7.478746514260736 427.11409497547413
  endloop
endfacet
facet normal 0.0 0.03710646451015376 0.9993113180043327
  outer loop
    vertex 312.059385902768 7.7426239296075705 427.1042966696097
    vertex 315.05938590276793 7.478746514260736 427.11409497547413
    vertex 315.05938590276793 7.7426239296075705 427.1042966696097
  endloop
endfacet
facet normal -0.0 -0.706904944288657 -0.7073085604884554
  outer loop
    vertex 315.05938590276793 9.672324466504344 431.5306627325926
    vertex 312.059385902768 9.485554150504182 431.7173264706021
    vertex 312.059385902768 9.672324466504344 431.5306627325926
  endloop
endfacet
facet normal -0.0 -0.706904944288657 -0.7073085604884554
  outer loop
    vertex 312.059385902768 9.485554150504182 431.7173264706021
    vertex 315.05938590276793 9.672324466504344 431.5306627325926
    vertex 315.05938590276793 9.485554150504182 431.7173264706021
  endloop
endfacet
facet normal 0.0 -0.9519105234682533 0.3063761663550153
  outer loop
    vertex 315.05938590276793 10.267545654980903 429.0680184142504
    vertex 312.059385902768 10.18664495084235 428.8166599860094
    vertex 315.05938590276793 10.18664495084235 428.8166599860094
  endloop
endfacet
facet normal 0.0 -0.9519105234682533 0.3063761663550153
  outer loop
    vertex 312.059385902768 10.18664495084235 428.8166599860094
    vertex 315.05938590276793 10.267545654980903 429.0680184142504
    vertex 312.059385902768 10.267545654980903 429.0680184142504
  endloop
endfacet
facet normal 0.0 0.5935884029076895 0.8047687916001083
  outer loop
    vertex 315.05938590276793 6.032271620888908 427.70222779612226
    vertex 312.059385902768 6.244778664557734 427.5454849925063
    vertex 312.059385902768 6.032271620888908 427.70222779612226
  endloop
endfacet
facet normal 0.0 0.5935884029076895 0.8047687916001083
  outer loop
    vertex 312.059385902768 6.244778664557734 427.5454849925063
    vertex 315.05938590276793 6.032271620888908 427.70222779612226
    vertex 315.05938590276793 6.244778664557734 427.5454849925063
  endloop
endfacet
facet normal 0.0 -0.25909314465280764 0.9658523398501032
  outer loop
    vertex 315.05938590276793 8.266754216419198 427.1635033808368
    vertex 312.059385902768 8.521793902638152 427.23191863603404
    vertex 312.059385902768 8.266754216419198 427.1635033808368
  endloop
endfacet
facet normal 0.0 -0.25909314465280764 0.9658523398501032
  outer loop
    vertex 312.059385902768 8.521793902638152 427.23191863603404
    vertex 315.05938590276793 8.266754216419198 427.1635033808368
    vertex 315.05938590276793 8.521793902638152 427.23191863603404
  endloop
endfacet
facet normal 0.0 0.8595789196386638 0.5110030145829159
  outer loop
    vertex 312.059385902768 5.367395890532552 428.5144882308506
    vertex 315.05938590276793 5.502330534829617 428.287509186781
    vertex 312.059385902768 5.502330534829617 428.287509186781
  endloop
endfacet
facet normal 0.0 0.8595789196386638 0.5110030145829159
  outer loop
    vertex 315.05938590276793 5.502330534829617 428.287509186781
    vertex 312.059385902768 5.367395890532552 428.5144882308506
    vertex 315.05938590276793 5.367395890532552 428.5144882308506
  endloop
endfacet
facet normal 0.0 0.6707688519988425 0.741666466269141
  outer loop
    vertex 315.05938590276793 5.836429888490338 427.8793485639996
    vertex 312.059385902768 6.032271620888908 427.70222779612226
    vertex 312.059385902768 5.836429888490338 427.8793485639996
  endloop
endfacet
facet normal 0.0 0.6707688519988425 0.741666466269141
  outer loop
    vertex 312.059385902768 6.032271620888908 427.70222779612226
    vertex 315.05938590276793 5.836429888490338 427.8793485639996
    vertex 315.05938590276793 6.032271620888908 427.70222779612226
  endloop
endfacet
facet normal 0.0 0.42236083489895443 0.906427782640988
  outer loop
    vertex 315.05938590276793 6.471836956634719 427.41067873410753
    vertex 312.059385902768 6.711188241795451 427.29915014841026
    vertex 312.059385902768 6.471836956634719 427.41067873410753
  endloop
endfacet
facet normal 0.0 0.42236083489895443 0.906427782640988
  outer loop
    vertex 312.059385902768 6.711188241795451 427.29915014841026
    vertex 315.05938590276793 6.471836956634719 427.41067873410753
    vertex 315.05938590276793 6.711188241795451 427.29915014841026
  endloop
endfacet
facet normal 0.0 0.8956180763492619 -0.44482385425744375
  outer loop
    vertex 312.059385902768 5.398257327695649 431.0478568810028
    vertex 315.05938590276793 5.28079717215127 430.81136003500535
    vertex 312.059385902768 5.28079717215127 430.81136003500535
  endloop
endfacet
facet normal 0.0 0.8956180763492619 -0.44482385425744375
  outer loop
    vertex 315.05938590276793 5.28079717215127 430.81136003500535
    vertex 312.059385902768 5.398257327695649 431.0478568810028
    vertex 315.05938590276793 5.398257327695649 431.0478568810028
  endloop
endfacet
facet normal 0.0 -0.5322751343584771 0.8465714271954051
  outer loop
    vertex 315.05938590276793 9.005187252061221 427.4429849491732
    vertex 312.059385902768 9.228730452172478 427.58353598013383
    vertex 312.059385902768 9.005187252061221 427.4429849491732
  endloop
endfacet
facet normal 0.0 -0.5322751343584771 0.8465714271954051
  outer loop
    vertex 312.059385902768 9.228730452172478 427.58353598013383
    vertex 315.05938590276793 9.005187252061221 427.4429849491732
    vertex 315.05938590276793 9.228730452172478 427.58353598013383
  endloop
endfacet
facet normal 0.0 0.4894133657260398 -0.872051923596703
  outer loop
    vertex 315.05938590276793 6.5292597969491295 432.12443386157815
    vertex 312.059385902768 6.298985089765922 431.9951989887058
    vertex 312.059385902768 6.5292597969491295 432.12443386157815
  endloop
endfacet
facet normal 0.0 0.4894133657260398 -0.872051923596703
  outer loop
    vertex 312.059385902768 6.298985089765922 431.9951989887058
    vertex 315.05938590276793 6.5292597969491295 432.12443386157815
    vertex 315.05938590276793 6.298985089765922 431.9951989887058
  endloop
endfacet
facet normal 0.0 0.9905729313583934 0.13698637764405588
  outer loop
    vertex 312.059385902768 5.070237773047673 429.52122810405217
    vertex 315.05938590276793 5.106409914327383 429.25966089834026
    vertex 312.059385902768 5.106409914327383 429.25966089834026
  endloop
endfacet
facet normal 0.0 0.9905729313583934 0.13698637764405588
  outer loop
    vertex 315.05938590276793 5.106409914327383 429.25966089834026
    vertex 312.059385902768 5.070237773047673 429.52122810405217
    vertex 315.05938590276793 5.070237773047673 429.52122810405217
  endloop
endfacet
facet normal 0.0 0.5738102188593391 -0.8189882982879533
  outer loop
    vertex 315.05938590276793 6.298985089765922 431.9951989887058
    vertex 312.059385902768 6.082722888135097 431.84367855610844
    vertex 312.059385902768 6.298985089765922 431.9951989887058
  endloop
endfacet
facet normal 0.0 0.5738102188593391 -0.8189882982879533
  outer loop
    vertex 312.059385902768 6.082722888135097 431.84367855610844
    vertex 315.05938590276793 6.298985089765922 431.9951989887058
    vertex 315.05938590276793 6.082722888135097 431.84367855610844
  endloop
endfacet
facet normal 0.0 0.9720109229558382 0.2349356627984338
  outer loop
    vertex 312.059385902768 5.106409914327383 429.25966089834026
    vertex 315.05938590276793 5.168447044220112 429.0029916163492
    vertex 312.059385902768 5.168447044220112 429.0029916163492
  endloop
endfacet
facet normal 0.0 0.9720109229558382 0.2349356627984338
  outer loop
    vertex 315.05938590276793 5.168447044220112 429.0029916163492
    vertex 312.059385902768 5.106409914327383 429.25966089834026
    vertex 315.05938590276793 5.106409914327383 429.25966089834026
  endloop
endfacet
facet normal -0.0 -0.18563199629571894 -0.9826193372569391
  outer loop
    vertex 315.05938590276793 8.329662489663935 432.3278118515327
    vertex 312.059385902768 8.07019526609973 432.3768292246469
    vertex 312.059385902768 8.329662489663935 432.3278118515327
  endloop
endfacet
facet normal -0.0 -0.18563199629571894 -0.9826193372569391
  outer loop
    vertex 312.059385902768 8.07019526609973 432.3768292246469
    vertex 315.05938590276793 8.329662489663935 432.3278118515327
    vertex 315.05938590276793 8.07019526609973 432.3768292246469
  endloop
endfacet
facet normal -0.0 -0.9961694867821027 -0.08744343088124015
  outer loop
    vertex 315.05938590276793 10.3326333381356 430.11567739902114
    vertex 312.059385902768 10.35572340064417 429.85263173067165
    vertex 315.05938590276793 10.35572340064417 429.85263173067165
  endloop
endfacet
facet normal -0.0 -0.9961694867821027 -0.08744343088124015
  outer loop
    vertex 312.059385902768 10.35572340064417 429.85263173067165
    vertex 315.05938590276793 10.3326333381356 430.11567739902114
    vertex 312.059385902768 10.3326333381356 430.11567739902114
  endloop
endfacet
facet normal 0.0 0.36893196030649983 0.9294564049294637
  outer loop
    vertex 315.05938590276793 13.066403145119383 439.8489858852303
    vertex 312.059385902768 13.513302559181872 439.67159674033286
    vertex 312.059385902768 13.066403145119383 439.8489858852303
  endloop
endfacet
facet normal 0.0 0.36893196030649983 0.9294564049294637
  outer loop
    vertex 312.059385902768 13.513302559181872 439.67159674033286
    vertex 315.05938590276793 13.066403145119383 439.8489858852303
    vertex 315.05938590276793 13.513302559181872 439.67159674033286
  endloop
endfacet
facet normal 0.0 0.234380141636139 0.9721450247810888
  outer loop
    vertex 315.05938590276793 6.960453458060286 427.21200784544317
    vertex 312.059385902768 7.217156376505993 427.1501178343337
    vertex 312.059385902768 6.960453458060286 427.21200784544317
  endloop
endfacet
facet normal 0.0 0.234380141636139 0.9721450247810888
  outer loop
    vertex 312.059385902768 7.217156376505993 427.1501178343337
    vertex 315.05938590276793 6.960453458060286 427.21200784544317
    vertex 315.05938590276793 7.217156376505993 427.1501178343337
  endloop
endfacet
facet normal 0.0 0.5105118675912351 0.8598707071696937
  outer loop
    vertex 315.05938590276793 6.244778664557734 427.5454849925063
    vertex 312.059385902768 6.471836956634719 427.41067873410753
    vertex 312.059385902768 6.244778664557734 427.5454849925063
  endloop
endfacet
facet normal 0.0 0.5105118675912351 0.8598707071696937
  outer loop
    vertex 312.059385902768 6.471836956634719 427.41067873410753
    vertex 315.05938590276793 6.244778664557734 427.5454849925063
    vertex 315.05938590276793 6.471836956634719 427.41067873410753
  endloop
endfacet
facet normal 0.0 0.8468759071479128 -0.5317905582956508
  outer loop
    vertex 312.059385902768 5.538680779282843 431.2714810805916
    vertex 315.05938590276793 5.398257327695649 431.0478568810028
    vertex 312.059385902768 5.398257327695649 431.0478568810028
  endloop
endfacet
facet normal 0.0 0.8468759071479128 -0.5317905582956508
  outer loop
    vertex 315.05938590276793 5.398257327695649 431.0478568810028
    vertex 312.059385902768 5.538680779282843 431.2714810805916
    vertex 315.05938590276793 5.538680779282843 431.2714810805916
  endloop
endfacet
facet normal 0.0 0.1028691054305707 0.9946949015391173
  outer loop
    vertex 315.05938590276793 11.1893832629172 440.24142286643155
    vertex 312.059385902768 11.66765093259497 440.1919615016854
    vertex 312.059385902768 11.1893832629172 440.24142286643155
  endloop
endfacet
facet normal 0.0 0.1028691054305707 0.9946949015391173
  outer loop
    vertex 312.059385902768 11.66765093259497 440.1919615016854
    vertex 315.05938590276793 11.1893832629172 440.24142286643155
    vertex 315.05938590276793 11.66765093259497 440.1919615016854
  endloop
endfacet
facet normal 0.0 0.9980756794972233 -0.06200756402372112
  outer loop
    vertex 312.059385902768 5.076662955451641 430.048651459456
    vertex 315.05938590276793 5.060289278438569 429.7851002448906
    vertex 312.059385902768 5.060289278438569 429.7851002448906
  endloop
endfacet
facet normal 0.0 0.9980756794972233 -0.06200756402372112
  outer loop
    vertex 315.05938590276793 5.060289278438569 429.7851002448906
    vertex 312.059385902768 5.076662955451641 430.048651459456
    vertex 315.05938590276793 5.076662955451641 430.048651459456
  endloop
endfacet
facet normal -0.0 -0.5527402507987844 -0.8333535955084713
  outer loop
    vertex 315.05938590276793 9.281122739475787 431.8844689943079
    vertex 312.059385902768 9.061068934486121 432.0304245598863
    vertex 312.059385902768 9.281122739475787 431.8844689943079
  endloop
endfacet
facet normal -0.0 -0.5527402507987844 -0.8333535955084713
  outer loop
    vertex 312.059385902768 9.061068934486121 432.0304245598863
    vertex 315.05938590276793 9.281122739475787 431.8844689943079
    vertex 315.05938590276793 9.061068934486121 432.0304245598863
  endloop
endfacet
facet normal 0.0 -0.3539773577566058 0.9352539923441395
  outer loop
    vertex 315.05938590276793 8.521793902638152 427.23191863603404
    vertex 312.059385902768 8.768756602069582 427.32538971931706
    vertex 312.059385902768 8.521793902638152 427.23191863603404
  endloop
endfacet
facet normal 0.0 -0.3539773577566058 0.9352539923441395
  outer loop
    vertex 312.059385902768 8.768756602069582 427.32538971931706
    vertex 315.05938590276793 8.521793902638152 427.23191863603404
    vertex 315.05938590276793 8.768756602069582 427.32538971931706
  endloop
endfacet
facet normal 0.0 -1.7527775710430147e-12 -1.0
  outer loop
    vertex 315.05938590276793 5.463948005958799 423.0079366908942
    vertex 312.059385902768 1.8086274711711074 423.00793669090064
    vertex 312.059385902768 5.463948005958799 423.0079366908942
  endloop
endfacet
facet normal 0.0 -1.7527775710430147e-12 -1.0
  outer loop
    vertex 312.059385902768 1.8086274711711074 423.00793669090064
    vertex 315.05938590276793 5.463948005958799 423.0079366908942
    vertex 315.05938590276793 1.8086274711711074 423.00793669090064
  endloop
endfacet
facet normal 0.0 -0.4453339652930016 0.8953645399257286
  outer loop
    vertex 315.05938590276793 8.768756602069582 427.32538971931706
    vertex 312.059385902768 9.005187252061221 427.4429849491732
    vertex 312.059385902768 8.768756602069582 427.32538971931706
  endloop
endfacet
facet normal 0.0 -0.4453339652930016 0.8953645399257286
  outer loop
    vertex 312.059385902768 9.005187252061221 427.4429849491732
    vertex 315.05938590276793 8.768756602069582 427.32538971931706
    vertex 315.05938590276793 9.005187252061221 427.4429849491732
  endloop
endfacet
facet normal 0.0 0.9061869565036372 0.4228772870025948
  outer loop
    vertex 312.059385902768 5.255731551761606 428.75377459219214
    vertex 315.05938590276793 5.367395890532552 428.5144882308506
    vertex 312.059385902768 5.367395890532552 428.5144882308506
  endloop
endfacet
facet normal 0.0 0.9061869565036372 0.4228772870025948
  outer loop
    vertex 315.05938590276793 5.367395890532552 428.5144882308506
    vertex 312.059385902768 5.255731551761606 428.75377459219214
    vertex 315.05938590276793 5.255731551761606 428.75377459219214
  endloop
endfacet
facet normal 0.0 0.1364198417882609 0.9906511125348146
  outer loop
    vertex 315.05938590276793 7.217156376505993 427.1501178343337
    vertex 312.059385902768 7.478746514260736 427.11409497547413
    vertex 312.059385902768 7.217156376505993 427.1501178343337
  endloop
endfacet
facet normal 0.0 0.1364198417882609 0.9906511125348146
  outer loop
    vertex 312.059385902768 7.478746514260736 427.11409497547413
    vertex 315.05938590276793 7.217156376505993 427.1501178343337
    vertex 315.05938590276793 7.478746514260736 427.11409497547413
  endloop
endfacet
facet normal 0.0 0.9437892005138848 0.33054794658772646
  outer loop
    vertex 312.059385902768 5.168447044220112 429.0029916163492
    vertex 315.05938590276793 5.255731551761606 428.75377459219214
    vertex 312.059385902768 5.255731551761606 428.75377459219214
  endloop
endfacet
facet normal 0.0 0.9437892005138848 0.33054794658772646
  outer loop
    vertex 315.05938590276793 5.255731551761606 428.75377459219214
    vertex 312.059385902768 5.168447044220112 429.0029916163492
    vertex 315.05938590276793 5.168447044220112 429.0029916163492
  endloop
endfacet
facet normal 0.0 -0.06257881812126748 0.9980400250102927
  outer loop
    vertex 315.05938590276793 7.7426239296075705 427.1042966696097
    vertex 312.059385902768 8.006166281267001 427.12082122621916
    vertex 312.059385902768 7.7426239296075705 427.1042966696097
  endloop
endfacet
facet normal 0.0 -0.06257881812126748 0.9980400250102927
  outer loop
    vertex 312.059385902768 8.006166281267001 427.12082122621916
    vertex 315.05938590276793 7.7426239296075705 427.1042966696097
    vertex 315.05938590276793 8.006166281267001 427.12082122621916
  endloop
endfacet
facet normal 0.0 -0.613920654293604 0.7893677408101457
  outer loop
    vertex 315.05938590276793 9.228730452172478 427.58353598013383
    vertex 312.059385902768 9.437170787135331 427.7456477820302
    vertex 312.059385902768 9.228730452172478 427.58353598013383
  endloop
endfacet
facet normal 0.0 -0.613920654293604 0.7893677408101457
  outer loop
    vertex 312.059385902768 9.437170787135331 427.7456477820302
    vertex 315.05938590276793 9.228730452172478 427.58353598013383
    vertex 315.05938590276793 9.437170787135331 427.7456477820302
  endloop
endfacet
facet normal -0.0 -0.37665359248142866 -0.92635418241126
  outer loop
    vertex 315.05938590276793 8.827575333973554 432.15374391716654
    vertex 312.059385902768 8.582963341425561 432.2532026204429
    vertex 312.059385902768 8.827575333973554 432.15374391716654
  endloop
endfacet
facet normal -0.0 -0.37665359248142866 -0.92635418241126
  outer loop
    vertex 312.059385902768 8.582963341425561 432.2532026204429
    vertex 315.05938590276793 8.827575333973554 432.15374391716654
    vertex 315.05938590276793 8.582963341425561 432.2532026204429
  endloop
endfacet
facet normal 0.0 -0.8193168706265016 0.5733409679299015
  outer loop
    vertex 315.05938590276793 9.952014075964957 428.3442535023922
    vertex 312.059385902768 9.800618453609362 428.12790582365784
    vertex 315.05938590276793 9.800618453609362 428.12790582365784
  endloop
endfacet
facet normal 0.0 -0.8193168706265016 0.5733409679299015
  outer loop
    vertex 312.059385902768 9.800618453609362 428.12790582365784
    vertex 315.05938590276793 9.952014075964957 428.3442535023922
    vertex 312.059385902768 9.952014075964957 428.3442535023922
  endloop
endfacet
facet normal 0.0 0.9354564580560698 -0.3534419543308246
  outer loop
    vertex 312.059385902768 5.28079717215127 430.81136003500535
    vertex 315.05938590276793 5.187467072925647 430.56434282897806
    vertex 312.059385902768 5.187467072925647 430.56434282897806
  endloop
endfacet
facet normal 0.0 0.9354564580560698 -0.3534419543308246
  outer loop
    vertex 315.05938590276793 5.187467072925647 430.56434282897806
    vertex 312.059385902768 5.28079717215127 430.81136003500535
    vertex 315.05938590276793 5.28079717215127 430.81136003500535
  endloop
endfacet
facet normal -0.0 -0.9261395653183598 -0.37718099839721475
  outer loop
    vertex 315.05938590276793 10.10911505289112 430.8729354088454
    vertex 312.059385902768 10.208713712564872 430.6283783930665
    vertex 315.05938590276793 10.208713712564872 430.6283783930665
  endloop
endfacet
facet normal -0.0 -0.9261395653183598 -0.37718099839721475
  outer loop
    vertex 312.059385902768 10.208713712564872 430.6283783930665
    vertex 315.05938590276793 10.10911505289112 430.8729354088454
    vertex 312.059385902768 10.10911505289112 430.8729354088454
  endloop
endfacet
facet normal 0.0 -0.9776866654153756 0.2100685227942628
  outer loop
    vertex 315.05938590276793 10.323016127328863 429.32618532292094
    vertex 312.059385902768 10.313802783129042 429.28330520148137
    vertex 315.05938590276793 10.313802783129042 429.28330520148137
  endloop
endfacet
facet normal 0.0 -0.9776866654153756 0.2100685227942628
  outer loop
    vertex 312.059385902768 10.313802783129042 429.28330520148137
    vertex 315.05938590276793 10.323016127328863 429.32618532292094
    vertex 312.059385902768 10.323016127328863 429.32618532292094
  endloop
endfacet
facet normal 0.0 1.0 -1.4892109520235584e-14
  outer loop
    vertex 306.059385902768 20.51330255918186 439.67159674033286
    vertex 315.05938590276793 20.51330255918161 423.0079366908942
    vertex 306.059385902768 20.51330255918161 423.0079366908942
  endloop
endfacet
facet normal 0.0 1.0 -1.4892109520235584e-14
  outer loop
    vertex 315.05938590276793 20.51330255918161 423.0079366908942
    vertex 306.059385902768 20.51330255918186 439.67159674033286
    vertex 315.05938590276793 20.51330255918186 439.67159674033286
  endloop
endfacet
facet normal 0.0 -0.9776866654152697 0.21006852279475513
  outer loop
    vertex 315.05938590276793 10.313802783129042 429.28330520148137
    vertex 312.059385902768 10.267545654980903 429.0680184142504
    vertex 315.05938590276793 10.267545654980903 429.0680184142504
  endloop
endfacet
facet normal 0.0 -0.9776866654152697 0.21006852279475513
  outer loop
    vertex 312.059385902768 10.267545654980903 429.0680184142504
    vertex 315.05938590276793 10.313802783129042 429.28330520148137
    vertex 312.059385902768 10.313802783129042 429.28330520148137
  endloop
endfacet
facet normal 0.0 0.0 -1.0
  outer loop
    vertex 315.05938590276793 5.595810930552978 423.0079366908942
    vertex 312.059385902768 5.463948005958799 423.0079366908942
    vertex 312.059385902768 5.595810930552978 423.0079366908942
  endloop
endfacet
facet normal 0.0 0.0 -1.0
  outer loop
    vertex 312.059385902768 5.463948005958799 423.0079366908942
    vertex 315.05938590276793 5.595810930552978 423.0079366908942
    vertex 315.05938590276793 5.463948005958799 423.0079366908942
  endloop
endfacet
endsolid Ender to CXY convert
